<?xml version="1.0" encoding="UTF-8"?>
<svg version="1.1" xmlns="http://www.w3.org/2000/svg" width="206" height="124">
<path d="M0 0 C67.98 0 135.96 0 206 0 C206 40.92 206 81.84 206 124 C138.02 124 70.04 124 0 124 C0 83.08 0 42.16 0 0 Z " fill="#000000" transform="translate(0,0)"/>
<path d="M0 0 C1.36140818 0.00867439 2.72281773 0.0171356 4.08422852 0.02539062 C15.14511655 0.13331134 26.08778142 0.94218954 37.0625 2.3125 C37.2578125 4.29817708 37.453125 6.28385417 37.6484375 8.26953125 C37.98915391 10.61238142 37.98915391 10.61238142 40.0625 13.3125 C39.4025 13.3125 38.7425 13.3125 38.0625 13.3125 C38.0625 14.9625 38.0625 16.6125 38.0625 18.3125 C37.0725 18.3125 36.0825 18.3125 35.0625 18.3125 C35.0625 21.2825 35.0625 24.2525 35.0625 27.3125 C33.7425 27.6425 32.4225 27.9725 31.0625 28.3125 C33.7025 28.3125 36.3425 28.3125 39.0625 28.3125 C41.41552778 23.53723775 41.712559 18.72045809 42.1875 13.5 C42.31705078 12.17452148 42.31705078 12.17452148 42.44921875 10.82226562 C42.66028444 8.65297942 42.86229426 6.48281542 43.0625 4.3125 C43.3925 4.3125 43.7225 4.3125 44.0625 4.3125 C44.36784003 22.15792827 44.36784003 22.15792827 41.5625 28.9375 C39.0625 31.3125 39.0625 31.3125 37.1484375 31.35546875 C36.41882813 31.27941406 35.68921875 31.20335938 34.9375 31.125 C31.52111892 30.86609797 30.33343835 31.12426915 27.46484375 33.1171875 C25.72791342 34.7152682 24.02573558 36.35190188 22.359375 38.0234375 C20.48473174 39.89170442 18.81755013 41.20309868 16.625 42.625 C13.18880244 46.22881696 12.77288537 49.62897073 11.78125 54.421875 C10.77053751 58.48669698 9.03878074 61.33621926 6.0625 64.3125 C4.1015625 64.515625 4.1015625 64.515625 1.6875 64.5625 C0.89601563 64.58828125 0.10453125 64.6140625 -0.7109375 64.640625 C-2.9375 64.3125 -2.9375 64.3125 -4.29272461 62.7878418 C-5.83298759 61.10947481 -5.83298759 61.10947481 -8.04370117 61.12719727 C-8.84783447 61.21026123 -9.65196777 61.2933252 -10.48046875 61.37890625 C-11.38047607 61.4550415 -12.2804834 61.53117676 -13.20776367 61.60961914 C-14.17045166 61.69719482 -15.13313965 61.78477051 -16.125 61.875 C-25.36800954 62.47707512 -32.58451399 61.93393806 -41.45605469 59.08251953 C-44.55941606 58.11951267 -47.68731816 57.26398058 -50.8203125 56.40234375 C-53.29733849 55.70737903 -55.77389929 55.01075423 -58.25 54.3125 C-59.45035889 53.98064697 -60.65071777 53.64879395 -61.88745117 53.30688477 C-63.0138501 52.97873779 -64.14024902 52.65059082 -65.30078125 52.3125 C-66.31438721 52.02375 -67.32799316 51.735 -68.37231445 51.4375 C-71.35590279 50.12900328 -72.41247983 49.17590646 -73.9375 46.3125 C-74.58342345 42.42043567 -74.44694856 38.5025504 -74.4375 34.5625 C-74.46585938 33.50289062 -74.49421875 32.44328125 -74.5234375 31.3515625 C-74.54423679 22.96944819 -72.63108881 18.12258419 -66.83203125 12.140625 C-61.6497024 8.21255585 -56.32251342 4.87994012 -49.9375 3.3125 C-48.9475 3.6425 -47.9575 3.9725 -46.9375 4.3125 C-53.8675 7.7775 -53.8675 7.7775 -60.9375 11.3125 C-59.473125 10.838125 -58.00875 10.36375 -56.5 9.875 C-53.21650358 8.88444801 -50.16759784 8.13588533 -46.75 7.875 C-41.35431453 7.40788235 -36.27610269 5.89886423 -31.07421875 4.4453125 C-30.11213501 4.18415649 -30.11213501 4.18415649 -29.13061523 3.91772461 C-27.51764299 3.47259957 -25.91117009 3.00375266 -24.30883789 2.52172852 C-16.13034281 0.21658755 -8.46630463 -0.11383267 0 0 Z " fill="#FDFDFD" transform="translate(117.9375,45.6875)"/>
<path d="M0 0 C0.71771576 -0.00095673 1.43543152 -0.00191345 2.17489624 -0.00289917 C3.68935229 -0.00357676 5.20381132 -0.00175196 6.71826172 0.00244141 C8.99583754 0.00774819 11.27321187 0.00250666 13.55078125 -0.00390625 C39.11828436 -0.01855642 39.11828436 -0.01855642 44.3984375 5.1328125 C45.80717827 7.44428084 47.05869444 9.76311144 48.22265625 12.20703125 C49.31632168 14.4637244 49.31632168 14.4637244 52.3984375 15.1328125 C53.96168308 18.25930365 53.58963952 21.57751868 53.5859375 25.0078125 C53.58513184 25.76852051 53.58432617 26.52922852 53.58349609 27.31298828 C53.41392629 43.10957932 53.41392629 43.10957932 49.3984375 49.1328125 C47.015625 49.42578125 47.015625 49.42578125 44.2734375 49.3203125 C43.36335938 49.29324219 42.45328125 49.26617187 41.515625 49.23828125 C40.81695312 49.20347656 40.11828125 49.16867188 39.3984375 49.1328125 C39.8934375 48.1428125 39.8934375 48.1428125 40.3984375 47.1328125 C42.0484375 47.1328125 43.6984375 47.1328125 45.3984375 47.1328125 C45.3984375 44.1628125 45.3984375 41.1928125 45.3984375 38.1328125 C46.3884375 38.1328125 47.3784375 38.1328125 48.3984375 38.1328125 C48.3984375 37.3490625 48.3984375 36.5653125 48.3984375 35.7578125 C48.3984375 34.21614583 48.3984375 32.67447917 48.3984375 31.1328125 C48.0684375 30.8028125 47.7384375 30.4728125 47.3984375 30.1328125 C47.25728589 27.46222399 47.35596643 24.80849012 47.3984375 22.1328125 C46.80417969 22.14441406 46.20992188 22.15601562 45.59765625 22.16796875 C44.35435547 22.18150391 44.35435547 22.18150391 43.0859375 22.1953125 C41.88517578 22.21271484 41.88517578 22.21271484 40.66015625 22.23046875 C37.89224377 22.14759712 35.2097624 21.93187876 32.45703125 21.65625 C11.98997718 19.73644136 -12.66451069 18.66428659 -31.6015625 28.1328125 C-34.57997203 28.65634386 -37.5671094 29.09293683 -40.55859375 29.53515625 C-43.60322433 30.02736488 -43.60322433 30.02736488 -46.30078125 31.26171875 C-48.6015625 32.1328125 -48.6015625 32.1328125 -51.6015625 31.1328125 C-47.0035283 28.07523646 -42.859367 25.885414 -37.6015625 24.1328125 C-35.36465929 21.3783829 -35.36465929 21.3783829 -35.6015625 18.5703125 C-35.6015625 16.1328125 -35.6015625 16.1328125 -33.6015625 14.1328125 C-32.85003906 14.20242187 -32.09851563 14.27203125 -31.32421875 14.34375 C-27.33564871 14.03473597 -25.58060384 11.57783063 -23.0390625 8.7578125 C-15.90172634 1.0216077 -10.49824066 0.00899372 0 0 Z " fill="#161616" transform="translate(107.6015625,25.8671875)"/>
<path d="M0 0 C4.95 0.495 4.95 0.495 10 1 C9.54372057 8.30047093 8.33954524 14.66045476 3 20 C0.23811813 20.17261762 -2.35400659 19.80164631 -5 19 C-6.5 16.9375 -6.5 16.9375 -7 15 C-8.70953857 15.48073975 -8.70953857 15.48073975 -10.45361328 15.97119141 C-24.43592353 19.43483319 -38.15555643 16.62031055 -51.61376953 12.41015625 C-54.17903246 11.60810632 -56.7536052 10.84449756 -59.33203125 10.0859375 C-60.97459245 9.59325499 -62.61654699 9.09854426 -64.2578125 8.6015625 C-65.02425079 8.3712735 -65.79068909 8.1409845 -66.58035278 7.90371704 C-68.40681901 7.32897995 -70.2070137 6.67193879 -72 6 C-72.33 5.34 -72.66 4.68 -73 4 C-67.06554814 4.99452192 -61.31634572 6.42513024 -55.55859375 8.1640625 C-54.9008194 8.36191345 -54.24304504 8.5597644 -53.56533813 8.76361084 C-50.83238669 9.58902126 -48.10111332 10.41926495 -45.37426758 11.26464844 C-35.11766208 14.4325423 -26.92358322 15.75590768 -16.1875 14.25 C-15.10855469 14.11078125 -14.02960938 13.9715625 -12.91796875 13.828125 C-9.53707153 12.86862003 -8.20584728 11.68980916 -6 9 C-4.76487921 6.86690808 -4.76487921 6.86690808 -4 5 C-2.35 5.33 -0.7 5.66 1 6 C0.505 3.03 0.505 3.03 0 0 Z " fill="#010101" transform="translate(120,89)"/>
<path d="M0 0 C0.33 0 0.66 0 1 0 C1.30534003 17.84542827 1.30534003 17.84542827 -1.5 24.625 C-4 27 -4 27 -5.9140625 27.04296875 C-6.64367187 26.96691406 -7.37328125 26.89085938 -8.125 26.8125 C-11.54138108 26.55359797 -12.72906165 26.81176915 -15.59765625 28.8046875 C-17.33458658 30.4027682 -19.03676442 32.03940188 -20.703125 33.7109375 C-22.57776826 35.57920442 -24.24494987 36.89059868 -26.4375 38.3125 C-29.87369756 41.91631696 -30.28961463 45.31647073 -31.28125 50.109375 C-32.29196249 54.17419698 -34.02371926 57.02371926 -37 60 C-38.9609375 60.203125 -38.9609375 60.203125 -41.375 60.25 C-42.16648438 60.27578125 -42.95796875 60.3015625 -43.7734375 60.328125 C-46 60 -46 60 -47.35522461 58.4753418 C-48.89548759 56.79697481 -48.89548759 56.79697481 -51.10620117 56.81469727 C-51.91033447 56.89776123 -52.71446777 56.9808252 -53.54296875 57.06640625 C-54.89600098 57.17988403 -54.89600098 57.17988403 -56.27636719 57.2956543 C-57.23704102 57.38371338 -58.19771484 57.47177246 -59.1875 57.5625 C-69.13365704 58.26651523 -77.61070449 57.55236715 -87 54 C-87.66 53.34 -88.32 52.68 -89 52 C-87.41642541 52.31127516 -85.83315007 52.62407289 -84.25 52.9375 C-83.36828125 53.11152344 -82.4865625 53.28554687 -81.578125 53.46484375 C-80.07789884 53.77625433 -78.58199994 54.11586574 -77.10546875 54.52514648 C-74.91330242 55.0195532 -72.97908718 55.12931606 -70.734375 55.1328125 C-69.92613281 55.13410156 -69.11789063 55.13539062 -68.28515625 55.13671875 C-67.03025391 55.13091797 -67.03025391 55.13091797 -65.75 55.125 C-64.51830078 55.13080078 -64.51830078 55.13080078 -63.26171875 55.13671875 C-58.08659294 55.12851728 -53.12173338 54.74347743 -48 54 C-47.34 54.99 -46.68 55.98 -46 57 C-44.03638136 57.57748803 -44.03638136 57.57748803 -41.875 57.6875 C-40.59625 57.790625 -39.3175 57.89375 -38 58 C-34.23816253 52.85882212 -31.70437113 48.21126859 -32.3125 41.60546875 C-32 38 -32 38 -29.515625 35.234375 C-28.44400352 34.38446831 -27.35458383 33.55660308 -26.25 32.75 C-25.71117187 32.32976562 -25.17234375 31.90953125 -24.6171875 31.4765625 C-23.09485033 30.29582294 -21.54796383 29.14693693 -20 28 C-19.27039063 27.42121094 -18.54078125 26.84242187 -17.7890625 26.24609375 C-13.78873271 23.45983785 -8.69802996 23.88814214 -4 24 C-1.64697222 19.22473775 -1.349941 14.40795809 -0.875 9.1875 C-0.74544922 7.86202148 -0.74544922 7.86202148 -0.61328125 6.50976562 C-0.40221556 4.34047942 -0.20020574 2.17031542 0 0 Z " fill="#E2E2E2" transform="translate(161,50)"/>
<path d="M0 0 C5.93445186 0.99452192 11.68365428 2.42513024 17.44140625 4.1640625 C18.0991806 4.36191345 18.75695496 4.5597644 19.43466187 4.76361084 C22.16761331 5.58902126 24.89888668 6.41926495 27.62573242 7.26464844 C37.89626607 10.4368442 46.06640641 11.78577027 56.8125 10.1875 C57.89144531 10.03667969 58.97039062 9.88585937 60.08203125 9.73046875 C63.08349894 8.97909732 64.70326262 8.02980423 67 6 C66 8 65 10 64 12 C49.60212786 15.42328978 35.21419985 12.735982 21.38623047 8.41015625 C18.82096754 7.60810632 16.2463948 6.84449756 13.66796875 6.0859375 C12.02540755 5.59325499 10.38345301 5.09854426 8.7421875 4.6015625 C7.97574921 4.3712735 7.20931091 4.1409845 6.41964722 3.90371704 C4.59318099 3.32897995 2.7929863 2.67193879 1 2 C0.67 1.34 0.34 0.68 0 0 Z " fill="#101010" transform="translate(47,93)"/>
<path d="M0 0 C-6.93 3.465 -6.93 3.465 -14 7 C-14 7.66 -14 8.32 -14 9 C-14.9075 9.5775 -15.815 10.155 -16.75 10.75 C-20.22202235 13.15370778 -21.81487153 15.4390499 -24 19 C-24.33 19 -24.66 19 -25 19 C-25.47852798 16.36809614 -25.35912674 14.60404843 -23.98046875 12.28515625 C-20.09174515 7.38943536 -15.58773445 4.66267694 -10 2 C-9.33097656 1.66742188 -8.66195312 1.33484375 -7.97265625 0.9921875 C-3.42570237 -1.14190079 -3.42570237 -1.14190079 0 0 Z " fill="#989898" transform="translate(71,50)"/>
<path d="M0 0 C0.66 0.33 1.32 0.66 2 1 C0.43910974 2.41844009 -1.1237889 3.83467025 -2.6875 5.25 C-3.55761719 6.03890625 -4.42773438 6.8278125 -5.32421875 7.640625 C-6.20722656 8.41921875 -7.09023437 9.1978125 -8 10 C-8.87269531 10.77859375 -9.74539062 11.5571875 -10.64453125 12.359375 C-11.81048828 13.17148438 -11.81048828 13.17148438 -13 14 C-13.99 13.67 -14.98 13.34 -16 13 C-14.08435828 11.39459585 -12.16753088 9.790645 -10.25 8.1875 C-9.71117187 7.73568359 -9.17234375 7.28386719 -8.6171875 6.81835938 C-5.79990684 4.46489931 -2.964465 2.16578632 0 0 Z " fill="#121212" transform="translate(145,75)"/>
<path d="M0 0 C0 3 0 3 -2 6 C-4.75 6.58203125 -4.75 6.58203125 -8 6.8125 C-9.0725 6.90144531 -10.145 6.99039063 -11.25 7.08203125 C-14 7 -14 7 -16 5 C-15.09636719 4.89042969 -14.19273438 4.78085938 -13.26171875 4.66796875 C-12.08222656 4.50941406 -10.90273437 4.35085937 -9.6875 4.1875 C-7.92986328 3.96126953 -7.92986328 3.96126953 -6.13671875 3.73046875 C-3.00579726 3.00135005 -1.90354807 2.50828536 0 0 Z " fill="#171717" transform="translate(113,99)"/>
<path d="M0 0 C0.99 1.485 0.99 1.485 2 3 C4.56282742 3.72965366 4.56282742 3.72965366 7 4 C3.25 6 3.25 6 1 6 C1 11.28 1 16.56 1 22 C0.67 22 0.34 22 0 22 C0 14.74 0 7.48 0 0 Z " fill="#0C0C0C" transform="translate(45,69)"/>
</svg>
