<?xml version="1.0" encoding="UTF-8"?>
<svg version="1.1" xmlns="http://www.w3.org/2000/svg" width="208" height="142">
<path d="M0 0 C68.64 0 137.28 0 208 0 C208 46.86 208 93.72 208 142 C139.36 142 70.72 142 0 142 C0 95.14 0 48.28 0 0 Z " fill="#000000" transform="translate(0,0)"/>
<path d="M0 0 C0.71771576 -0.00095673 1.43543152 -0.00191345 2.17489624 -0.00289917 C3.68935229 -0.00357676 5.20381132 -0.00175196 6.71826172 0.00244141 C8.99583754 0.00774819 11.27321187 0.00250666 13.55078125 -0.00390625 C39.11828436 -0.01855642 39.11828436 -0.01855642 44.3984375 5.1328125 C45.80717827 7.44428084 47.05869444 9.76311144 48.22265625 12.20703125 C49.31632168 14.4637244 49.31632168 14.4637244 52.3984375 15.1328125 C55.07904693 21.29678071 54.68524768 28.56393421 54.3984375 35.1328125 C54.35396484 36.47472656 54.35396484 36.47472656 54.30859375 37.84375 C53.9797621 43.1852592 53.45096992 47.2829067 49.3984375 51.1328125 C47.484375 51.17578125 47.484375 51.17578125 45.2734375 50.9453125 C41.85705642 50.68641047 40.66937585 50.94458165 37.80078125 52.9375 C36.06385092 54.5355807 34.36167308 56.17221438 32.6953125 57.84375 C30.82066924 59.71201692 29.15348763 61.02341118 26.9609375 62.4453125 C23.52473994 66.04912946 23.10882287 69.44928323 22.1171875 74.2421875 C21.10647501 78.30700948 19.37471824 81.15653176 16.3984375 84.1328125 C14.4375 84.3359375 14.4375 84.3359375 12.0234375 84.3828125 C11.23195313 84.40859375 10.44046875 84.434375 9.625 84.4609375 C7.3984375 84.1328125 7.3984375 84.1328125 6.04321289 82.6081543 C4.50294991 80.92978731 4.50294991 80.92978731 2.29223633 80.94750977 C1.48810303 81.03057373 0.68396973 81.1136377 -0.14453125 81.19921875 C-1.04453857 81.275354 -1.9445459 81.35148926 -2.87182617 81.42993164 C-3.83451416 81.51750732 -4.79720215 81.60508301 -5.7890625 81.6953125 C-15.03207204 82.29738762 -22.24857649 81.75425056 -31.12011719 78.90283203 C-34.22347856 77.93982517 -37.35138066 77.08429308 -40.484375 76.22265625 C-42.96140099 75.52769153 -45.43796179 74.83106673 -47.9140625 74.1328125 C-49.11442139 73.80095947 -50.31478027 73.46910645 -51.55151367 73.12719727 C-52.6779126 72.79905029 -53.80431152 72.47090332 -54.96484375 72.1328125 C-55.97844971 71.8440625 -56.99205566 71.5553125 -58.03637695 71.2578125 C-61.01996529 69.94931578 -62.07654233 68.99621896 -63.6015625 66.1328125 C-64.24748595 62.24074817 -64.11101106 58.3228629 -64.1015625 54.3828125 C-64.12992188 53.32320312 -64.15828125 52.26359375 -64.1875 51.171875 C-64.20825669 42.80692929 -62.26633748 38.04810921 -56.6015625 31.99609375 C-51.16479425 27.78047462 -45.78092725 25.45726309 -39.2265625 23.37109375 C-36.45684641 22.42775008 -36.45684641 22.42775008 -35.79296875 20.12890625 C-35.72980469 19.47019531 -35.66664062 18.81148437 -35.6015625 18.1328125 C-34.96501908 16.7848382 -34.30550862 15.44684526 -33.6015625 14.1328125 C-32.89128906 14.24367188 -32.18101563 14.35453125 -31.44921875 14.46875 C-27.41674556 13.99303986 -25.63176733 11.63460011 -23.0390625 8.7578125 C-15.90172634 1.0216077 -10.49824066 0.00899372 0 0 Z " fill="#080808" transform="translate(113.6015625,43.8671875)"/>
<path d="M0 0 C1.6328125 1 1.6328125 1 3.1328125 3.6875 C3.2978125 4.450625 3.4628125 5.21375 3.6328125 6 C5.25862216 5.88601335 6.88348407 5.75844341 8.5078125 5.625 C9.86519531 5.52058594 9.86519531 5.52058594 11.25 5.4140625 C13.81223153 5.20431868 13.81223153 5.20431868 15.6328125 3 C19.41587862 1.10846694 22.42114421 0.48428552 26.6328125 1 C30.2906343 3.03993908 32.30227424 4.50419262 34.6328125 8 C33.9728125 8 33.3128125 8 32.6328125 8 C32.6328125 9.65 32.6328125 11.3 32.6328125 13 C27.3528125 13 22.0728125 13 16.6328125 13 C16.3440625 14.464375 16.0553125 15.92875 15.7578125 17.4375 C15.265625 19.93359375 15.265625 19.93359375 14.6328125 22 C12.6328125 23 12.6328125 23 10.0703125 22.4375 C7.6328125 21 7.6328125 21 6.7578125 18 C6.6328125 15 6.6328125 15 7.6328125 13 C6.9728125 13.33 6.3128125 13.66 5.6328125 14 C5.6328125 14.66 5.6328125 15.32 5.6328125 16 C4.6428125 16 3.6528125 16 2.6328125 16 C3.1278125 17.485 3.1278125 17.485 3.6328125 19 C0.6628125 20.98 -2.3071875 22.96 -5.3671875 25 C-3.9234375 25.5775 -2.4796875 26.155 -0.9921875 26.75 C3.28088117 28.45922747 3.28088117 28.45922747 4.9140625 30.96875 C5.77661257 33.4063915 5.77541783 35.43310398 5.6328125 38 C10.64390717 35.24623956 14.66245459 31.63286191 18.90429688 27.8515625 C23.98293149 23.43225939 27.01204136 22.84952793 33.6328125 23 C35.98584028 18.22473775 36.2828715 13.40795809 36.7578125 8.1875 C36.88736328 6.86202148 36.88736328 6.86202148 37.01953125 5.50976562 C37.23059694 3.34047942 37.43260676 1.17031542 37.6328125 -1 C37.9628125 -1 38.2928125 -1 38.6328125 -1 C38.93815253 16.84542827 38.93815253 16.84542827 36.1328125 23.625 C33.6328125 26 33.6328125 26 31.71875 26.04296875 C30.98914063 25.96691406 30.25953125 25.89085938 29.5078125 25.8125 C26.09143142 25.55359797 24.90375085 25.81176915 22.03515625 27.8046875 C20.29822592 29.4027682 18.59604808 31.03940188 16.9296875 32.7109375 C15.05504424 34.57920442 13.38786263 35.89059868 11.1953125 37.3125 C7.75911494 40.91631696 7.34319787 44.31647073 6.3515625 49.109375 C5.34085001 53.17419698 3.60909324 56.02371926 0.6328125 59 C-1.328125 59.203125 -1.328125 59.203125 -3.7421875 59.25 C-4.92941406 59.28867188 -4.92941406 59.28867188 -6.140625 59.328125 C-8.3671875 59 -8.3671875 59 -9.72241211 57.4753418 C-11.26267509 55.79697481 -11.26267509 55.79697481 -13.47338867 55.81469727 C-14.27752197 55.89776123 -15.08165527 55.9808252 -15.91015625 56.06640625 C-16.81016357 56.1425415 -17.7101709 56.21867676 -18.63745117 56.29711914 C-19.60013916 56.38469482 -20.56282715 56.47227051 -21.5546875 56.5625 C-30.79769704 57.16457512 -38.01420149 56.62143806 -46.88574219 53.77001953 C-49.98910356 52.80701267 -53.11700566 51.95148058 -56.25 51.08984375 C-58.72702599 50.39487903 -61.20358679 49.69825423 -63.6796875 49 C-64.88004639 48.66814697 -66.08040527 48.33629395 -67.31713867 47.99438477 C-68.4435376 47.66623779 -69.56993652 47.33809082 -70.73046875 47 C-71.74407471 46.71125 -72.75768066 46.4225 -73.80200195 46.125 C-76.79105535 44.81410649 -77.85216943 43.87771267 -79.3671875 41 C-79.73950195 38.37451172 -79.73950195 38.37451172 -79.73046875 35.4296875 C-79.72982422 34.36878906 -79.72917969 33.30789062 -79.72851562 32.21484375 C-79.71240234 31.11269531 -79.69628906 30.01054688 -79.6796875 28.875 C-79.68291016 27.76511719 -79.68613281 26.65523437 -79.68945312 25.51171875 C-79.63422076 17.26703326 -79.63422076 17.26703326 -77.3671875 15 C-77.37766113 15.74161377 -77.38813477 16.48322754 -77.39892578 17.24731445 C-77.44045946 20.60234193 -77.46650539 23.95731533 -77.4921875 27.3125 C-77.50894531 28.47974609 -77.52570313 29.64699219 -77.54296875 30.84960938 C-77.54941406 31.96787109 -77.55585937 33.08613281 -77.5625 34.23828125 C-77.57297363 35.26993408 -77.58344727 36.30158691 -77.59423828 37.36450195 C-77.56016265 40.23187592 -77.56016265 40.23187592 -75.3671875 43 C-72.74681857 44.03649149 -70.22074763 44.90271517 -67.52734375 45.69921875 C-66.73178574 45.9391304 -65.93622772 46.17904205 -65.11656189 46.42622375 C-63.42105012 46.93219331 -61.72367559 47.4319553 -60.0246582 47.92602539 C-57.49003032 48.66979285 -54.96945157 49.45157629 -52.44726562 50.23632812 C-38.19444887 54.51026772 -25.0580634 55.02213753 -10.3671875 53 C-9.7071875 53.99 -9.0471875 54.98 -8.3671875 56 C-6.40356886 56.57748803 -6.40356886 56.57748803 -4.2421875 56.6875 C-2.9634375 56.790625 -1.6846875 56.89375 -0.3671875 57 C4.00752218 51.56932591 5.19373214 45.73751259 6.6328125 39 C3.25244914 38.70970162 0.00535533 38.57511271 -3.3671875 39 C-5.9386814 41.0684887 -5.9386814 41.0684887 -7.3671875 44 C-10.17092582 48.93457944 -10.17092582 48.93457944 -13.3671875 50 C-16.10531357 49.54451823 -18.6873051 48.74685247 -21.3671875 48 C-21.3671875 44.04 -21.3671875 40.08 -21.3671875 36 C-20.0471875 35.34 -18.7271875 34.68 -17.3671875 34 C-15.66037803 32.37446717 -13.99058555 30.70884005 -12.3671875 29 C-11.7071875 28.34 -11.0471875 27.68 -10.3671875 27 C-12.3471875 26.67 -14.3271875 26.34 -16.3671875 26 C-15.89337806 21.73571504 -13.32821023 19.88509907 -10.3671875 17 C-10.3671875 16.34 -10.3671875 15.68 -10.3671875 15 C-11.3571875 15 -12.3471875 15 -13.3671875 15 C-13.6971875 16.32 -14.0271875 17.64 -14.3671875 19 C-20.51953125 18.4140625 -20.51953125 18.4140625 -22.3671875 18 C-22.8621875 17.01 -22.8621875 17.01 -23.3671875 16 C-24.0271875 16 -24.6871875 16 -25.3671875 16 C-26.50199277 12.39006828 -26.46734517 9.0157673 -26.4296875 5.25 C-26.42066406 4.07953125 -26.41164062 2.9090625 -26.40234375 1.703125 C-26.39074219 0.81109375 -26.37914062 -0.0809375 -26.3671875 -1 C-25.7071875 -1 -25.0471875 -1 -24.3671875 -1 C-23.8721875 3.455 -23.8721875 3.455 -23.3671875 8 C-23.08875 6.63875 -23.08875 6.63875 -22.8046875 5.25 C-21.24451655 1.72265697 -19.80378237 0.39771464 -16.35546875 -1.30859375 C-10.72008781 -3.26824488 -5.3667959 -2.18881088 0 0 Z " fill="#F8F8F8" transform="translate(129.3671875,69)"/>
<path d="M0 0 C0.33 0 0.66 0 1 0 C1.30534003 17.84542827 1.30534003 17.84542827 -1.5 24.625 C-4 27 -4 27 -5.9140625 27.04296875 C-6.64367187 26.96691406 -7.37328125 26.89085938 -8.125 26.8125 C-11.54138108 26.55359797 -12.72906165 26.81176915 -15.59765625 28.8046875 C-17.33458658 30.4027682 -19.03676442 32.03940188 -20.703125 33.7109375 C-22.57776826 35.57920442 -24.24494987 36.89059868 -26.4375 38.3125 C-29.87369756 41.91631696 -30.28961463 45.31647073 -31.28125 50.109375 C-32.29196249 54.17419698 -34.02371926 57.02371926 -37 60 C-38.9609375 60.203125 -38.9609375 60.203125 -41.375 60.25 C-42.56222656 60.28867188 -42.56222656 60.28867188 -43.7734375 60.328125 C-46 60 -46 60 -47.35522461 58.4753418 C-48.89548759 56.79697481 -48.89548759 56.79697481 -51.10620117 56.81469727 C-51.91033447 56.89776123 -52.71446777 56.9808252 -53.54296875 57.06640625 C-54.44297607 57.1425415 -55.3429834 57.21867676 -56.27026367 57.29711914 C-57.23295166 57.38469482 -58.19563965 57.47227051 -59.1875 57.5625 C-68.43050954 58.16457512 -75.64701399 57.62143806 -84.51855469 54.77001953 C-87.62191606 53.80701267 -90.74981816 52.95148058 -93.8828125 52.08984375 C-96.35983849 51.39487903 -98.83639929 50.69825423 -101.3125 50 C-102.51285889 49.66814697 -103.71321777 49.33629395 -104.94995117 48.99438477 C-106.0763501 48.66623779 -107.20274902 48.33809082 -108.36328125 48 C-109.37688721 47.71125 -110.39049316 47.4225 -111.43481445 47.125 C-114.42386785 45.81410649 -115.48498193 44.87771267 -117 42 C-117.37231445 39.37451172 -117.37231445 39.37451172 -117.36328125 36.4296875 C-117.36263672 35.36878906 -117.36199219 34.30789062 -117.36132812 33.21484375 C-117.3371582 31.56162109 -117.3371582 31.56162109 -117.3125 29.875 C-117.31572266 28.76511719 -117.31894531 27.65523437 -117.32226562 26.51171875 C-117.26703326 18.26703326 -117.26703326 18.26703326 -115 16 C-115.01047363 16.74161377 -115.02094727 17.48322754 -115.03173828 18.24731445 C-115.07327196 21.60234193 -115.09931789 24.95731533 -115.125 28.3125 C-115.14175781 29.47974609 -115.15851563 30.64699219 -115.17578125 31.84960938 C-115.18222656 32.96787109 -115.18867187 34.08613281 -115.1953125 35.23828125 C-115.20578613 36.26993408 -115.21625977 37.30158691 -115.22705078 38.36450195 C-115.19297515 41.23187592 -115.19297515 41.23187592 -113 44 C-110.37963107 45.03649149 -107.85356013 45.90271517 -105.16015625 46.69921875 C-104.36459824 46.9391304 -103.56904022 47.17904205 -102.74937439 47.42622375 C-101.05386262 47.93219331 -99.35648809 48.4319553 -97.6574707 48.92602539 C-95.12284282 49.66979285 -92.60226407 50.45157629 -90.08007812 51.23632812 C-75.82726137 55.51026772 -62.6908759 56.02213753 -48 54 C-47.34 54.99 -46.68 55.98 -46 57 C-44.03638136 57.57748803 -44.03638136 57.57748803 -41.875 57.6875 C-40.59625 57.790625 -39.3175 57.89375 -38 58 C-33.62529032 52.56932591 -32.43908036 46.73751259 -31 40 C-34.38036336 39.70970162 -37.62745717 39.57511271 -41 40 C-43.5714939 42.0684887 -43.5714939 42.0684887 -45 45 C-47.80373832 49.93457944 -47.80373832 49.93457944 -51 51 C-53.73812607 50.54451823 -56.3201176 49.74685247 -59 49 C-59 45.04 -59 41.08 -59 37 C-57.68 36.34 -56.36 35.68 -55 35 C-54.195625 34.195625 -53.39125 33.39125 -52.5625 32.5625 C-47.10729614 27.10729614 -47.10729614 27.10729614 -43.08203125 26.90234375 C-39.52831574 27.17570648 -37.16047167 27.91307785 -34 29.625 C-32 32 -32 32 -31.6875 35.75 C-31.790625 36.8225 -31.89375 37.895 -32 39 C-26.98890533 36.24623956 -22.97035791 32.63286191 -18.72851562 28.8515625 C-13.64988101 24.43225939 -10.62077114 23.84952793 -4 24 C-1.64697222 19.22473775 -1.349941 14.40795809 -0.875 9.1875 C-0.74544922 7.86202148 -0.74544922 7.86202148 -0.61328125 6.50976562 C-0.40221556 4.34047942 -0.20020574 2.17031542 0 0 Z " fill="#F0F0F0" transform="translate(167,68)"/>
<path d="M0 0 C2.1875 1.375 2.1875 1.375 4 3 C5.64797236 3.71162443 7.31165408 4.39031953 9 5 C9 6.32 9 7.64 9 9 C9.99 9 10.98 9 12 9 C11.67 10.65 11.34 12.3 11 14 C9.68 13.67 8.36 13.34 7 13 C6.67 11.02 6.34 9.04 6 7 C3.69 7.33 1.38 7.66 -1 8 C-1.99 11.96 -2.98 15.92 -4 20 C-4.99 20 -5.98 20 -7 20 C-7 19.34 -7 18.68 -7 18 C-7.99 18 -8.98 18 -10 18 C-10 18.99 -10 19.98 -10 21 C-12.97454134 20.67842796 -14.59335278 20.37860258 -16.8125 18.3125 C-18.38003886 15.25992432 -18.40839489 13.40329076 -18 10 C-16.42189091 5.35850268 -14.39568015 2.93300859 -9.96875 0.69140625 C-6.42877061 -0.5518008 -3.74062948 -0.42925256 0 0 Z " fill="#F5F5F5" transform="translate(82,84)"/>
<path d="M0 0 C1.32 0 2.64 0 4 0 C4.9375 2.625 4.9375 2.625 5 6 C2.9456142 8.38782014 0.56957396 10.19296794 -2 12 C-2.05422947 10.5629191 -2.09289723 9.12524538 -2.125 7.6875 C-2.14820312 6.88699219 -2.17140625 6.08648437 -2.1953125 5.26171875 C-2 3 -2 3 0 0 Z " fill="#111111" transform="translate(123,73)"/>
<path d="M0 0 C-0.90621094 0.40089844 -1.81242187 0.80179687 -2.74609375 1.21484375 C-10.18575701 4.64121972 -15.79538033 8.04780604 -21.328125 14.27734375 C-21.87984375 14.84582031 -22.4315625 15.41429688 -23 16 C-23.66 16 -24.32 16 -25 16 C-21.72825456 8.63857276 -17.0051999 5.44944076 -10 2 C-9.32839844 1.66484375 -8.65679687 1.3296875 -7.96484375 0.984375 C-3.41810345 -1.13936782 -3.41810345 -1.13936782 0 0 Z " fill="#A7A7A7" transform="translate(77,68)"/>
</svg>
