<?xml version="1.0" encoding="UTF-8"?>
<svg version="1.1" xmlns="http://www.w3.org/2000/svg" width="238" height="136">
<path d="M0 0 C78.54 0 157.08 0 238 0 C238 44.88 238 89.76 238 136 C159.46 136 80.92 136 0 136 C0 91.12 0 46.24 0 0 Z " fill="#000000" transform="translate(0,0)"/>
<path d="M0 0 C0.71771576 -0.00095673 1.43543152 -0.00191345 2.17489624 -0.00289917 C3.68935229 -0.00357676 5.20381132 -0.00175196 6.71826172 0.00244141 C8.99583754 0.00774819 11.27321187 0.00250666 13.55078125 -0.00390625 C39.11828436 -0.01855642 39.11828436 -0.01855642 44.3984375 5.1328125 C45.80717827 7.44428084 47.05869444 9.76311144 48.22265625 12.20703125 C49.31632168 14.4637244 49.31632168 14.4637244 52.3984375 15.1328125 C55.07904693 21.29678071 54.68524768 28.56393421 54.3984375 35.1328125 C54.35396484 36.47472656 54.35396484 36.47472656 54.30859375 37.84375 C53.9797621 43.1852592 53.45096992 47.2829067 49.3984375 51.1328125 C47.484375 51.17578125 47.484375 51.17578125 45.2734375 50.9453125 C41.85705642 50.68641047 40.66937585 50.94458165 37.80078125 52.9375 C36.06385092 54.5355807 34.36167308 56.17221438 32.6953125 57.84375 C30.82066924 59.71201692 29.15348763 61.02341118 26.9609375 62.4453125 C23.52473994 66.04912946 23.10882287 69.44928323 22.1171875 74.2421875 C21.10647501 78.30700948 19.37471824 81.15653176 16.3984375 84.1328125 C14.4375 84.3359375 14.4375 84.3359375 12.0234375 84.3828125 C11.23195313 84.40859375 10.44046875 84.434375 9.625 84.4609375 C7.3984375 84.1328125 7.3984375 84.1328125 6.04321289 82.6081543 C4.50294991 80.92978731 4.50294991 80.92978731 2.29223633 80.94750977 C1.48810303 81.03057373 0.68396973 81.1136377 -0.14453125 81.19921875 C-1.04453857 81.275354 -1.9445459 81.35148926 -2.87182617 81.42993164 C-3.83451416 81.51750732 -4.79720215 81.60508301 -5.7890625 81.6953125 C-15.03207204 82.29738762 -22.24857649 81.75425056 -31.12011719 78.90283203 C-34.22347856 77.93982517 -37.35138066 77.08429308 -40.484375 76.22265625 C-42.96140099 75.52769153 -45.43796179 74.83106673 -47.9140625 74.1328125 C-49.11442139 73.80095947 -50.31478027 73.46910645 -51.55151367 73.12719727 C-52.6779126 72.79905029 -53.80431152 72.47090332 -54.96484375 72.1328125 C-55.97844971 71.8440625 -56.99205566 71.5553125 -58.03637695 71.2578125 C-61.01996529 69.94931578 -62.07654233 68.99621896 -63.6015625 66.1328125 C-64.24748595 62.24074817 -64.11101106 58.3228629 -64.1015625 54.3828125 C-64.12992188 53.32320312 -64.15828125 52.26359375 -64.1875 51.171875 C-64.20825669 42.80692929 -62.26633748 38.04810921 -56.6015625 31.99609375 C-51.16479425 27.78047462 -45.78092725 25.45726309 -39.2265625 23.37109375 C-36.45684641 22.42775008 -36.45684641 22.42775008 -35.79296875 20.12890625 C-35.72980469 19.47019531 -35.66664062 18.81148437 -35.6015625 18.1328125 C-34.96501908 16.7848382 -34.30550862 15.44684526 -33.6015625 14.1328125 C-32.89128906 14.24367188 -32.18101563 14.35453125 -31.44921875 14.46875 C-27.41674556 13.99303986 -25.63176733 11.63460011 -23.0390625 8.7578125 C-15.90172634 1.0216077 -10.49824066 0.00899372 0 0 Z " fill="#131313" transform="translate(119.6015625,35.8671875)"/>
<path d="M0 0 C1.42119141 0.13535156 1.42119141 0.13535156 2.87109375 0.2734375 C5.5625 0.625 5.5625 0.625 7.45825195 1.11572266 C11.34502022 2.05641167 15.33674439 2.26685514 19.3125 2.625 C20.26592285 2.71185059 21.2193457 2.79870117 22.20166016 2.88818359 C33.30370058 3.84833085 44.42723449 4.26428426 55.5625 4.625 C56.0575 6.605 56.0575 6.605 56.5625 8.625 C52.45792386 11.61014628 49.58504631 11.9204439 44.5625 11.625 C44.418125 12.264375 44.27375 12.90375 44.125 13.5625 C43.5625 15.625 43.5625 15.625 42.5625 16.625 C47.06603262 18.38247614 50.73889811 18.81794408 55.5625 18.625 C55.5625 19.945 55.5625 21.265 55.5625 22.625 C49.80905405 23.53824539 45.53228867 23.64095181 39.9140625 22.171875 C35.85198444 21.22720568 31.71284154 20.95425465 27.5625 20.625 C27.5625 21.945 27.5625 23.265 27.5625 24.625 C28.284375 24.50125 29.00625 24.3775 29.75 24.25 C32.5625 24.625 32.5625 24.625 34.8125 27.375 C35.2146875 27.92800781 35.616875 28.48101562 36.03125 29.05078125 C37.9493052 31.02265942 39.73921568 31.6300916 42.3125 32.5625 C44.66796875 33.48046875 44.66796875 33.48046875 46.5625 34.625 C47.625 38.375 47.625 38.375 47.5625 41.625 C43.20430966 41.14075663 41.43658659 39.88229814 38.5625 36.625 C37.0212688 34.91578411 37.0212688 34.91578411 35.5625 33.625 C34.9025 33.625 34.2425 33.625 33.5625 33.625 C34.0575 35.605 34.0575 35.605 34.5625 37.625 C29.6125 37.625 24.6625 37.625 19.5625 37.625 C19.5625 38.285 19.5625 38.945 19.5625 39.625 C18.88703125 39.73457031 18.2115625 39.84414062 17.515625 39.95703125 C16.62359375 40.11558594 15.7315625 40.27414063 14.8125 40.4375 C13.93078125 40.58832031 13.0490625 40.73914063 12.140625 40.89453125 C9.50244473 41.46489553 9.50244473 41.46489553 7.55078125 43.2109375 C4.95752469 45.05525749 3.61254252 44.83654391 0.5 44.4375 C-0.35722656 44.34082031 -1.21445313 44.24414062 -2.09765625 44.14453125 C-4.4375 43.625 -4.4375 43.625 -7.4375 41.625 C-9.05535127 38.98534793 -9.4375 37.78487325 -9.4375 34.625 C-10.4275 34.625 -11.4175 34.625 -12.4375 34.625 C-11.94519231 27.11730769 -11.94519231 27.11730769 -9.375 24.625 C-8.735625 24.295 -8.09625 23.965 -7.4375 23.625 C-10.0775 22.635 -12.7175 21.645 -15.4375 20.625 C-15.128125 20.0475 -14.81875 19.47 -14.5 18.875 C-13.51166636 16.78205816 -12.9206387 14.87964725 -12.4375 12.625 C-13.7575 12.295 -15.0775 11.965 -16.4375 11.625 C-14.91543991 8.99598712 -13.59384036 6.78134036 -11.4375 4.625 C-10.963125 3.944375 -10.48875 3.26375 -10 2.5625 C-7.15692723 -0.96291024 -4.15765936 -0.41745833 0 0 Z " fill="#F9F9F9" transform="translate(85.4375,63.375)"/>
<path d="M0 0 C-0.90621094 0.40089844 -1.81242187 0.80179688 -2.74609375 1.21484375 C-10.18575701 4.64121972 -15.79538033 8.04780604 -21.328125 14.27734375 C-21.87984375 14.84582031 -22.4315625 15.41429688 -23 16 C-23.66 16 -24.32 16 -25 16 C-21.72825456 8.63857276 -17.0051999 5.44944076 -10 2 C-9.32839844 1.66484375 -8.65679687 1.3296875 -7.96484375 0.984375 C-3.41810345 -1.13936782 -3.41810345 -1.13936782 0 0 Z " fill="#A7A7A7" transform="translate(83,60)"/>
</svg>
