<?xml version="1.0" encoding="UTF-8"?>
<svg version="1.1" xmlns="http://www.w3.org/2000/svg" width="232" height="154">
<path d="M0 0 C76.56 0 153.12 0 232 0 C232 50.82 232 101.64 232 154 C155.44 154 78.88 154 0 154 C0 103.18 0 52.36 0 0 Z " fill="#000000" transform="translate(0,0)"/>
<path d="M0 0 C0.71771576 -0.00095673 1.43543152 -0.00191345 2.17489624 -0.00289917 C3.68935229 -0.00357676 5.20381132 -0.00175196 6.71826172 0.00244141 C8.99583754 0.00774819 11.27321187 0.00250666 13.55078125 -0.00390625 C39.11828436 -0.01855642 39.11828436 -0.01855642 44.3984375 5.1328125 C45.80717827 7.44428084 47.05869444 9.76311144 48.22265625 12.20703125 C49.31632168 14.4637244 49.31632168 14.4637244 52.3984375 15.1328125 C55.07904693 21.29678071 54.68524768 28.56393421 54.3984375 35.1328125 C54.35396484 36.47472656 54.35396484 36.47472656 54.30859375 37.84375 C53.9797621 43.1852592 53.45096992 47.2829067 49.3984375 51.1328125 C47.484375 51.17578125 47.484375 51.17578125 45.2734375 50.9453125 C41.85705642 50.68641047 40.66937585 50.94458165 37.80078125 52.9375 C36.06385092 54.5355807 34.36167308 56.17221438 32.6953125 57.84375 C30.82066924 59.71201692 29.15348763 61.02341118 26.9609375 62.4453125 C23.52473994 66.04912946 23.10882287 69.44928323 22.1171875 74.2421875 C21.10647501 78.30700948 19.37471824 81.15653176 16.3984375 84.1328125 C14.4375 84.3359375 14.4375 84.3359375 12.0234375 84.3828125 C11.23195313 84.40859375 10.44046875 84.434375 9.625 84.4609375 C7.3984375 84.1328125 7.3984375 84.1328125 6.04321289 82.6081543 C4.50294991 80.92978731 4.50294991 80.92978731 2.29223633 80.94750977 C1.48810303 81.03057373 0.68396973 81.1136377 -0.14453125 81.19921875 C-1.04453857 81.275354 -1.9445459 81.35148926 -2.87182617 81.42993164 C-3.83451416 81.51750732 -4.79720215 81.60508301 -5.7890625 81.6953125 C-15.03207204 82.29738762 -22.24857649 81.75425056 -31.12011719 78.90283203 C-34.22347856 77.93982517 -37.35138066 77.08429308 -40.484375 76.22265625 C-42.96140099 75.52769153 -45.43796179 74.83106673 -47.9140625 74.1328125 C-49.11442139 73.80095947 -50.31478027 73.46910645 -51.55151367 73.12719727 C-52.6779126 72.79905029 -53.80431152 72.47090332 -54.96484375 72.1328125 C-55.97844971 71.8440625 -56.99205566 71.5553125 -58.03637695 71.2578125 C-61.01996529 69.94931578 -62.07654233 68.99621896 -63.6015625 66.1328125 C-64.24748595 62.24074817 -64.11101106 58.3228629 -64.1015625 54.3828125 C-64.12992187 53.32320312 -64.15828125 52.26359375 -64.1875 51.171875 C-64.20825669 42.80692929 -62.26633748 38.04810921 -56.6015625 31.99609375 C-51.16479425 27.78047462 -45.78092725 25.45726309 -39.2265625 23.37109375 C-36.45684641 22.42775008 -36.45684641 22.42775008 -35.79296875 20.12890625 C-35.72980469 19.47019531 -35.66664062 18.81148437 -35.6015625 18.1328125 C-34.96501908 16.7848382 -34.30550862 15.44684526 -33.6015625 14.1328125 C-32.89128906 14.24367188 -32.18101563 14.35453125 -31.44921875 14.46875 C-27.41674556 13.99303986 -25.63176733 11.63460011 -23.0390625 8.7578125 C-15.90172634 1.0216077 -10.49824066 0.00899372 0 0 Z " fill="#111111" transform="translate(129.6015625,49.8671875)"/>
<path d="M0 0 C0.92941406 0.00443115 1.85882813 0.0088623 2.81640625 0.01342773 C3.83863281 0.03477783 4.86085938 0.05612793 5.9140625 0.078125 C7.51314453 0.09564819 7.51314453 0.09564819 9.14453125 0.11352539 C12.22957938 0.15485846 15.31375593 0.21311658 18.39831543 0.28131104 C20.70721927 0.33180226 23.01619018 0.37772575 25.32519531 0.42333984 C30.39678497 0.52559534 35.46793006 0.6429452 40.5390625 0.765625 C41.79405548 0.79468933 41.79405548 0.79468933 43.07440186 0.82434082 C45.45863557 0.88136338 47.84257265 0.94535422 50.2265625 1.01171875 C50.95146881 1.02845139 51.67637512 1.04518402 52.42324829 1.06242371 C57.42414488 1.21320738 57.42414488 1.21320738 58.5390625 2.328125 C58.84263081 4.21699448 59.12833726 6.11102813 59.30859375 8.015625 C59.50115147 10.32881112 59.50115147 10.32881112 59.98828125 12.578125 C60.33553045 15.17572938 60.33083238 16.81795345 59.5390625 19.328125 C55.68703722 23.93981263 51.76316815 27.02985724 45.74169922 27.58691406 C36.02669881 27.71008818 26.29412169 26.89212297 16.61279297 26.15625 C13.88442274 25.95089411 11.15525994 25.76029942 8.42578125 25.5703125 C6.67962165 25.4409903 4.93352505 25.31081388 3.1875 25.1796875 C2.37711273 25.12438873 1.56672546 25.06908997 0.73178101 25.01211548 C-3.05751613 24.71156045 -6.22406341 24.42792388 -9.4609375 22.328125 C-9.51545464 20.28676105 -9.55396235 18.24496644 -9.5859375 16.203125 C-9.60914062 15.06617187 -9.63234375 13.92921875 -9.65625 12.7578125 C-9.4179094 8.57255164 -8.79810257 5.03386763 -6.16601562 1.67626953 C-3.96712064 -0.0623184 -2.783659 -0.03267602 0 0 Z " fill="#FDFDFD" transform="translate(121.4609375,65.671875)"/>
<path d="M0 0 C-0.90621094 0.40089844 -1.81242187 0.80179687 -2.74609375 1.21484375 C-10.18575701 4.64121972 -15.79538033 8.04780604 -21.328125 14.27734375 C-21.87984375 14.84582031 -22.4315625 15.41429688 -23 16 C-23.66 16 -24.32 16 -25 16 C-21.72825456 8.63857276 -17.0051999 5.44944076 -10 2 C-9.32839844 1.66484375 -8.65679687 1.3296875 -7.96484375 0.984375 C-3.41810345 -1.13936782 -3.41810345 -1.13936782 0 0 Z " fill="#A7A7A7" transform="translate(93,74)"/>
<path d="M0 0 C0.66 0 1.32 0 2 0 C2.66 3.3 3.32 6.6 4 10 C3.01 10 2.02 10 1 10 C0.67 6.7 0.34 3.4 0 0 Z " fill="#202020" transform="translate(179,66)"/>
</svg>
